<?xml version="1.0" standalone="no"?>
<!DOCTYPE svg PUBLIC "-//W3C//DTD SVG 20010904//EN"
 "http://www.w3.org/TR/2001/REC-SVG-20010904/DTD/svg10.dtd">
<svg version="1.0" xmlns="http://www.w3.org/2000/svg"
 width="260.000000pt" height="260.000000pt" viewBox="0 0 260.000000 260.000000"
 preserveAspectRatio="xMidYMid meet">
<metadata>
Created by potrace 1.11, written by Peter Selinger 2001-2013
</metadata>
<g transform="translate(0.000000,260.000000) scale(0.100000,-0.100000)"
fill="#000000" stroke="none">
<path d="M557 2136 c-58 -29 -78 -71 -73 -155 8 -115 48 -144 201 -146 l100
-1 2 -546 2 -546 -112 -3 c-97 -4 -116 -7 -144 -27 -38 -27 -53 -71 -48 -146
4 -73 25 -110 75 -130 36 -14 119 -16 763 -16 455 0 735 4 758 10 60 17 62 33
62 359 0 269 -2 289 -21 327 -24 48 -58 66 -131 70 -87 4 -134 -24 -152 -89
-6 -22 -10 -112 -10 -199 l1 -158 -335 0 -335 0 2 547 3 547 102 2 c116 1 161
20 184 76 18 45 16 136 -5 175 -34 67 -38 68 -464 69 -372 1 -384 1 -425 -20z"/>
</g>
</svg>
